<svg width="29" height="28" viewBox="0 0 29 28" fill="none" xmlns="http://www.w3.org/2000/svg">
<path d="M14.2681 22.8333L7.35146 27C7.0459 27.1944 6.72646 27.2778 6.39313 27.25C6.05979 27.2222 5.76813 27.1111 5.51813 26.9167C5.26813 26.7222 5.07368 26.4794 4.93479 26.1883C4.7959 25.8972 4.76813 25.5706 4.85146 25.2083L6.68479 17.3333L0.559793 12.0417C0.282015 11.7917 0.108682 11.5067 0.039793 11.1867C-0.0290959 10.8667 -0.00854044 10.5544 0.10146 10.25C0.21146 9.94555 0.378126 9.69555 0.60146 9.5C0.824793 9.30444 1.13035 9.17944 1.51813 9.125L9.60146 8.41667L12.7265 1C12.8653 0.666667 13.0809 0.416666 13.3731 0.25C13.6653 0.0833331 13.9637 0 14.2681 0C14.5726 0 14.8709 0.0833331 15.1631 0.25C15.4553 0.416666 15.6709 0.666667 15.8098 1L18.9348 8.41667L27.0181 9.125C27.407 9.18055 27.7126 9.30555 27.9348 9.5C28.157 9.69444 28.3237 9.94444 28.4348 10.25C28.5459 10.5556 28.567 10.8683 28.4981 11.1883C28.4292 11.5083 28.2553 11.7928 27.9765 12.0417L21.8515 17.3333L23.6848 25.2083C23.7681 25.5694 23.7403 25.8961 23.6015 26.1883C23.4626 26.4806 23.2681 26.7233 23.0181 26.9167C22.7681 27.11 22.4765 27.2211 22.1431 27.25C21.8098 27.2789 21.4903 27.1955 21.1848 27L14.2681 22.8333Z" fill="white"/>
</svg>
