<svg width="100" height="33" viewBox="0 0 100 33" fill="none" xmlns="http://www.w3.org/2000/svg">
<path d="M42.7945 17.3659C42.7945 22.1137 39.0896 25.6122 34.5428 25.6122C29.9959 25.6122 26.291 22.1137 26.291 17.3659C26.291 12.5847 29.9959 9.11963 34.5428 9.11963C39.0896 9.11963 42.7945 12.5847 42.7945 17.3659ZM39.1822 17.3659C39.1822 14.399 37.035 12.3691 34.5428 12.3691C32.0506 12.3691 29.9033 14.3992 29.9033 17.3659C29.9033 20.3031 32.0506 22.3627 34.5428 22.3627C37.035 22.3629 39.1822 20.2994 39.1822 17.3659Z" fill="#FF4131"/>
<path d="M60.5953 17.3659C60.5953 22.1137 56.8904 25.6122 52.3436 25.6122C47.7967 25.6122 44.0918 22.1137 44.0918 17.3659C44.0918 12.5884 47.7967 9.11963 52.3436 9.11963C56.8902 9.11963 60.5953 12.5847 60.5953 17.3659ZM56.983 17.3659C56.983 14.399 54.8357 12.3691 52.3436 12.3691C49.8514 12.3691 47.7041 14.3992 47.7041 17.3659C47.7041 20.3031 49.8514 22.3627 52.3436 22.3627C54.8357 22.3629 56.983 20.2994 56.983 17.3659Z" fill="#FFBC00"/>
<path d="M77.6559 9.61794V24.4226C77.6559 30.5125 74.0732 32.9998 69.8381 32.9998C65.8514 32.9998 63.4518 30.3265 62.5469 28.1404L65.6918 26.828C66.2518 28.1702 67.624 29.754 69.8344 29.754C72.5453 29.754 74.2254 28.0772 74.2254 24.9207V23.7347H74.0992C73.2908 24.7349 71.733 25.6085 69.7676 25.6085C65.6547 25.6085 61.8867 22.017 61.8867 17.3957C61.8867 12.7409 65.6547 9.11963 69.7676 9.11963C71.7295 9.11963 73.2871 9.99329 74.0992 10.9637H74.2254V9.62146H77.6559V9.61794ZM74.4813 17.3957C74.4813 14.492 72.549 12.3691 70.0902 12.3691C67.598 12.3691 65.51 14.492 65.51 17.3957C65.51 20.2696 67.5978 22.3627 70.0902 22.3627C72.549 22.3629 74.4813 20.2696 74.4813 17.3957Z" fill="#0085F7"/>
<path d="M83.3123 0.940918V25.1073H79.7891V0.940918H83.3123Z" fill="#00A94B"/>
<path d="M97.0406 20.0804L99.8443 21.9542C98.9395 23.2964 96.7588 25.6088 92.9908 25.6088C88.318 25.6088 84.8281 21.9875 84.8281 17.3625C84.8281 12.4585 88.3477 9.11621 92.5865 9.11621C96.8551 9.11621 98.9432 12.5218 99.6256 14.3621L100 15.299L89.0041 19.8646C89.8459 21.5191 91.1551 22.363 92.9908 22.363C94.8303 22.3632 96.1061 21.4559 97.0406 20.0804ZM88.4107 17.1135L95.7613 14.0537C95.357 13.0238 94.1406 12.3064 92.7092 12.3064C90.8732 12.3062 88.318 13.9309 88.4107 17.1135Z" fill="#FF4131"/>
<path d="M12.9543 15.2211V11.7225H24.7145C24.8295 12.3323 24.8887 13.0536 24.8887 13.8342C24.8887 16.4591 24.1729 19.7047 21.8662 22.0173C19.6225 24.3597 16.7557 25.6089 12.958 25.6089C5.91895 25.6089 0 19.861 0 12.8045C0 5.7481 5.91895 0 12.958 0C16.8521 0 19.6262 1.53174 21.7104 3.52831L19.2479 5.99696C17.7533 4.59151 15.7283 3.49855 12.9543 3.49855C7.81406 3.49855 3.79395 7.65147 3.79395 12.8045C3.79395 17.9576 7.81406 22.1105 12.9543 22.1105C16.2883 22.1105 18.1871 20.7683 19.4037 19.5489C20.3902 18.5599 21.0393 17.1472 21.2951 15.2176L12.9543 15.2211Z" fill="#0085F7"/>
</svg>
