<svg width="49" height="29" viewBox="0 0 49 29" fill="none" xmlns="http://www.w3.org/2000/svg">
<path d="M37.5 0H4.6875C3.4443 0 2.25201 0.49386 1.37294 1.37294C0.49386 2.25201 0 3.4443 0 4.6875V23.4375C0 24.6807 0.49386 25.873 1.37294 26.7521C2.25201 27.6311 3.4443 28.125 4.6875 28.125H37.5C38.7432 28.125 39.9355 27.6311 40.8146 26.7521C41.6936 25.873 42.1875 24.6807 42.1875 23.4375V4.6875C42.1875 3.4443 41.6936 2.25201 40.8146 1.37294C39.9355 0.49386 38.7432 0 37.5 0ZM39.0625 23.4375C39.0625 23.8519 38.8979 24.2493 38.6049 24.5424C38.3118 24.8354 37.9144 25 37.5 25H4.6875C4.2731 25 3.87567 24.8354 3.58265 24.5424C3.28962 24.2493 3.125 23.8519 3.125 23.4375V4.6875C3.125 4.2731 3.28962 3.87567 3.58265 3.58265C3.87567 3.28962 4.2731 3.125 4.6875 3.125H37.5C37.9144 3.125 38.3118 3.28962 38.6049 3.58265C38.8979 3.87567 39.0625 4.2731 39.0625 4.6875V23.4375ZM26.5625 7.8125V20.3125C26.5625 20.7269 26.3979 21.1243 26.1049 21.4174C25.8118 21.7104 25.4144 21.875 25 21.875C24.5856 21.875 24.1882 21.7104 23.8951 21.4174C23.6021 21.1243 23.4375 20.7269 23.4375 20.3125V7.8125C23.4375 7.3981 23.6021 7.00067 23.8951 6.70765C24.1882 6.41462 24.5856 6.25 25 6.25C25.4144 6.25 25.8118 6.41462 26.1049 6.70765C26.3979 7.00067 26.5625 7.3981 26.5625 7.8125ZM18.75 7.8125V20.3125C18.75 20.7269 18.5854 21.1243 18.2924 21.4174C17.9993 21.7104 17.6019 21.875 17.1875 21.875C16.7731 21.875 16.3757 21.7104 16.0826 21.4174C15.7896 21.1243 15.625 20.7269 15.625 20.3125V7.8125C15.625 7.3981 15.7896 7.00067 16.0826 6.70765C16.3757 6.41462 16.7731 6.25 17.1875 6.25C17.6019 6.25 17.9993 6.41462 18.2924 6.70765C18.5854 7.00067 18.75 7.3981 18.75 7.8125ZM10.9375 7.8125V20.3125C10.9375 20.7269 10.7729 21.1243 10.4799 21.4174C10.1868 21.7104 9.7894 21.875 9.375 21.875C8.9606 21.875 8.56317 21.7104 8.27015 21.4174C7.97712 21.1243 7.8125 20.7269 7.8125 20.3125V7.8125C7.8125 7.3981 7.97712 7.00067 8.27015 6.70765C8.56317 6.41462 8.9606 6.25 9.375 6.25C9.7894 6.25 10.1868 6.41462 10.4799 6.70765C10.7729 7.00067 10.9375 7.3981 10.9375 7.8125ZM48.4375 7.8125V20.3125C48.4375 20.7269 48.2729 21.1243 47.9799 21.4174C47.6868 21.7104 47.2894 21.875 46.875 21.875C46.4606 21.875 46.0632 21.7104 45.7701 21.4174C45.4771 21.1243 45.3125 20.7269 45.3125 20.3125V7.8125C45.3125 7.3981 45.4771 7.00067 45.7701 6.70765C46.0632 6.41462 46.4606 6.25 46.875 6.25C47.2894 6.25 47.6868 6.41462 47.9799 6.70765C48.2729 7.00067 48.4375 7.3981 48.4375 7.8125Z" fill="black"/>
</svg>
