<svg width="47" height="32" viewBox="0 0 47 32" fill="none" xmlns="http://www.w3.org/2000/svg">
<path d="M45.3125 28.1334H43.75V3.50447L45.6387 3.09822C45.8437 3.05978 46.0389 2.98069 46.2128 2.86561C46.3867 2.75053 46.5359 2.6018 46.6514 2.42817C46.767 2.25455 46.8466 2.05955 46.8856 1.85467C46.9246 1.64979 46.9222 1.43918 46.8785 1.23524C46.8348 1.03131 46.7508 0.838187 46.6313 0.667256C46.5118 0.496324 46.3593 0.351045 46.1827 0.239981C46.0062 0.128918 45.8092 0.0543188 45.6034 0.0205804C45.3976 -0.013158 45.1871 -0.00535238 44.9844 0.0435372L1.23438 9.41854C0.857469 9.49987 0.523946 9.71769 0.297958 10.0301C0.0719696 10.3425 -0.0305227 10.7275 0.010195 11.1109C0.0509127 11.4943 0.231965 11.8491 0.518526 12.1071C0.805087 12.3651 1.17692 12.508 1.5625 12.5084C1.67345 12.5082 1.78408 12.4964 1.89258 12.4732L3.125 12.2096V28.1334H1.5625C1.1481 28.1334 0.750671 28.298 0.457646 28.591C0.16462 28.8841 0 29.2815 0 29.6959C0 30.1103 0.16462 30.5077 0.457646 30.8007C0.750671 31.0938 1.1481 31.2584 1.5625 31.2584H45.3125C45.7269 31.2584 46.1243 31.0938 46.4174 30.8007C46.7104 30.5077 46.875 30.1103 46.875 29.6959C46.875 29.2815 46.7104 28.8841 46.4174 28.591C46.1243 28.298 45.7269 28.1334 45.3125 28.1334ZM6.25 11.5318L40.625 4.1744V28.1334H35.9375V17.1959C35.9375 16.7815 35.7729 16.3841 35.4799 16.091C35.1868 15.798 34.7894 15.6334 34.375 15.6334H12.5C12.0856 15.6334 11.6882 15.798 11.3951 16.091C11.1021 16.3841 10.9375 16.7815 10.9375 17.1959V28.1334H6.25V11.5318ZM32.8125 21.8834H14.0625V18.7584H32.8125V21.8834ZM14.0625 25.0084H32.8125V28.1334H14.0625V25.0084Z" fill="black"/>
</svg>
