<svg width="44" height="38" viewBox="0 0 44 38" fill="none" xmlns="http://www.w3.org/2000/svg">
<path d="M21.6055 17.873C21.749 18.0845 21.8384 18.3278 21.866 18.5819C21.8936 18.8359 21.8584 19.0928 21.7637 19.3301L18.6387 27.1426C18.484 27.5275 18.1829 27.8351 17.8014 27.998C17.4199 28.1608 16.9894 28.1654 16.6045 28.0107C16.2196 27.8561 15.9119 27.5549 15.7491 27.1735C15.5863 26.792 15.5817 26.3614 15.7363 25.9766L18.0039 20.3125H14.0625C13.8064 20.3129 13.5541 20.2504 13.3279 20.1305C13.1016 20.0105 12.9083 19.8368 12.765 19.6246C12.6217 19.4124 12.5327 19.1682 12.5059 18.9135C12.4791 18.6588 12.5153 18.4015 12.6113 18.1641L15.7363 10.3516C15.8133 10.161 15.927 9.98744 16.071 9.84083C16.215 9.69421 16.3865 9.57739 16.5757 9.49705C16.7649 9.4167 16.968 9.3744 17.1735 9.37256C17.379 9.37072 17.5829 9.40938 17.7734 9.48633C17.964 9.56327 18.1376 9.677 18.2842 9.82102C18.4308 9.96504 18.5476 10.1365 18.628 10.3257C18.7083 10.5148 18.7506 10.718 18.7524 10.9235C18.7543 11.129 18.7156 11.3329 18.6387 11.5234L16.3711 17.1875H20.3125C20.5676 17.1875 20.8188 17.25 21.0442 17.3695C21.2696 17.489 21.4623 17.6619 21.6055 17.873ZM43.75 10.6699V26.5625C43.75 27.8057 43.2561 28.998 42.3771 29.8771C41.498 30.7561 40.3057 31.25 39.0625 31.25C37.8193 31.25 36.627 30.7561 35.7479 29.8771C34.8689 28.998 34.375 27.8057 34.375 26.5625V18.75C34.375 18.3356 34.2104 17.9382 33.9174 17.6451C33.6243 17.3521 33.2269 17.1875 32.8125 17.1875H29.6875V34.375H32.8125C33.2269 34.375 33.6243 34.5396 33.9174 34.8326C34.2104 35.1257 34.375 35.5231 34.375 35.9375C34.375 36.3519 34.2104 36.7493 33.9174 37.0424C33.6243 37.3354 33.2269 37.5 32.8125 37.5H1.5625C1.1481 37.5 0.750671 37.3354 0.457646 37.0424C0.16462 36.7493 0 36.3519 0 35.9375C0 35.5231 0.16462 35.1257 0.457646 34.8326C0.750671 34.5396 1.1481 34.375 1.5625 34.375H4.6875V4.6875C4.6875 3.4443 5.18136 2.25201 6.06044 1.37294C6.93951 0.49386 8.1318 0 9.375 0H25C26.2432 0 27.4355 0.49386 28.3146 1.37294C29.1936 2.25201 29.6875 3.4443 29.6875 4.6875V14.0625H32.8125C34.0557 14.0625 35.248 14.5564 36.1271 15.4354C37.0061 16.3145 37.5 17.5068 37.5 18.75V26.5625C37.5 26.9769 37.6646 27.3743 37.9576 27.6674C38.2507 27.9604 38.6481 28.125 39.0625 28.125C39.4769 28.125 39.8743 27.9604 40.1674 27.6674C40.4604 27.3743 40.625 26.9769 40.625 26.5625V10.6699C40.6238 10.2574 40.4595 9.86215 40.168 9.57031L36.3945 5.79297C36.1013 5.49978 35.9366 5.10213 35.9366 4.6875C35.9366 4.27287 36.1013 3.87522 36.3945 3.58203C36.6877 3.28884 37.0854 3.12413 37.5 3.12413C37.9146 3.12413 38.3123 3.28884 38.6055 3.58203L42.3828 7.35547C42.8183 7.79024 43.1634 8.307 43.3981 8.87589C43.6327 9.44478 43.7523 10.0545 43.75 10.6699ZM26.5625 34.375V4.6875C26.5625 4.2731 26.3979 3.87567 26.1049 3.58265C25.8118 3.28962 25.4144 3.125 25 3.125H9.375C8.9606 3.125 8.56317 3.28962 8.27015 3.58265C7.97712 3.87567 7.8125 4.2731 7.8125 4.6875V34.375H26.5625Z" fill="black"/>
</svg>
