<svg width="47" height="40" viewBox="0 0 47 40" fill="none" xmlns="http://www.w3.org/2000/svg">
<path d="M45.3125 35.938H42.1875V21.8755L42.6445 22.3325C42.9382 22.6257 43.3364 22.7902 43.7514 22.7899C44.1664 22.7895 44.5642 22.6243 44.8574 22.3306C45.1506 22.0369 45.3151 21.6387 45.3148 21.2237C45.3144 20.8087 45.1492 20.4109 44.8555 20.1177L25.6465 0.914567C25.0605 0.328959 24.2659 0 23.4375 0C22.6091 0 21.8145 0.328959 21.2285 0.914567L2.01953 20.1177C1.7266 20.4109 1.56214 20.8084 1.56232 21.2229C1.5625 21.6373 1.72732 22.0347 2.02051 22.3277C2.3137 22.6206 2.71124 22.785 3.12569 22.7849C3.54014 22.7847 3.93754 22.6199 4.23047 22.3267L4.6875 21.8755V35.938H1.5625C1.1481 35.938 0.750671 36.1026 0.457646 36.3956C0.16462 36.6887 0 37.0861 0 37.5005C0 37.9149 0.16462 38.3123 0.457646 38.6054C0.750671 38.8984 1.1481 39.063 1.5625 39.063H45.3125C45.7269 39.063 46.1243 38.8984 46.4174 38.6054C46.7104 38.3123 46.875 37.9149 46.875 37.5005C46.875 37.0861 46.7104 36.6887 46.4174 36.3956C46.1243 36.1026 45.7269 35.938 45.3125 35.938ZM7.8125 18.7505L23.4375 3.1255L39.0625 18.7505V35.938H29.6875V25.0005C29.6875 24.5861 29.5229 24.1887 29.2299 23.8956C28.9368 23.6026 28.5394 23.438 28.125 23.438H18.75C18.3356 23.438 17.9382 23.6026 17.6451 23.8956C17.3521 24.1887 17.1875 24.5861 17.1875 25.0005V35.938H7.8125V18.7505ZM26.5625 35.938H20.3125V26.563H26.5625V35.938Z" fill="black"/>
</svg>
